# xmcd CD database file
#
# Track frame offsets:
#	150
#	602
#	39108
#	73901
#	103269
#	140211
#	170221
#	196475
#	234487
#	265843
#	295362
#	325913
#	351145
#
# Disc length: 5184 seconds
#
# Revision: 7
# Processed by: cddbd v1.5.2PL0 Copyright (c) Steve Scherf et al.
# Submitted via: CDex 1.50beta9
#
DISCID=cc143e0d
DTITLE=Julia Navarro - Die Bibelverschwörung CD4 von 6
DYEAR=2006
DGENRE=Blues
TTITLE0=040 nicht erfassen
TTITLE1=041 Elly war in seiner herausgehobenen Stellung ...
TTITLE2=042 Robert Brown verließ das Büro seines Mentors ...
TTITLE3=043 Verlegen standen Clara und Achmed einander ...
TTITLE4=044 Fatima erwartete sie an der Haustür, den Finger ...
TTITLE5=045 Er schwieg weil er wollte, dass ihn Clara ... 
TTITLE6=046 Die Grabung war äußerst ergiebig ...
TTITLE7=047 So leise wie möglich betrat Clara ihr Haus ...
TTITLE8=048 Der Lärm der Rotoren zerfetzte die Stille ...
TTITLE9=049 Lindoll machte sich seine eigenen Gedanken ...
TTITLE10=050 Tannenberg saß, eine Decke über den Knien ...
TTITLE11=051 Es fiel Clara schwer die Crew zu überzeugen, dass ...
TTITLE12=052 Ich muss mit deinem Großvater sprechen ...
EXTD=YEAR: 2006
EXTT0=
EXTT1=
EXTT2=
EXTT3=
EXTT4=
EXTT5=
EXTT6=
EXTT7=
EXTT8=
EXTT9=
EXTT10=
EXTT11=
EXTT12=
PLAYORDER=
